<svg width="548" height="367" viewBox="0 0 548 367" fill="none" xmlns="http://www.w3.org/2000/svg">
<path opacity="0.6" d="M318.251 60.5496C283.183 59.3301 249.758 48.0018 217.888 35.6102C186.019 23.2187 154.431 9.48665 120.185 2.92047C98.1664 -1.30748 72.9852 -1.90212 55.2475 9.90994C38.1746 21.2735 32.6599 40.8914 29.6935 59.0933C27.4625 72.79 26.1682 87.2023 32.2671 100.027C36.5126 108.927 44.0469 116.41 49.2594 124.936C67.3899 154.603 54.5726 191.188 34.9212 220.179C25.7048 233.785 15.0129 246.731 7.90167 261.198C0.790478 275.666 -2.50323 292.24 3.72158 306.995C9.89099 321.609 24.5868 332.605 40.5114 340.33C72.8542 356.007 110.964 360.492 148.126 363.062C230.388 368.691 313.094 366.252 395.572 363.813C426.097 362.906 456.758 361.994 486.784 357.262C503.459 354.637 520.678 350.474 532.785 340.426C548.151 327.666 551.963 306.068 541.664 290.068C524.39 263.239 476.631 256.572 464.554 227.778C457.911 211.929 464.735 194.272 474.395 179.572C495.109 148.042 529.839 120.376 531.667 84.33C532.926 59.572 516.231 34.7838 490.415 23.0675C463.36 10.7767 425.84 12.3288 405.882 32.6421C385.329 53.5702 349.209 61.623 318.251 60.5496Z" fill="#587EEC"/>
<path d="M122.436 356.36C122.436 356.36 94.7368 335.407 89.5042 308.754C87.3822 297.56 81.6903 287.356 73.2824 279.672C69.2602 276.058 64.9159 272.819 60.304 269.997" stroke="#9AB1F3" stroke-width="2" stroke-miterlimit="10"/>
<path d="M56.9146 253.206C59.342 256.492 60.4399 270.415 60.4399 270.415C60.4399 270.415 47.4615 265.301 45.029 262.02C43.8609 260.443 43.3668 258.466 43.6554 256.525C43.9439 254.583 44.9915 252.836 46.5676 251.667C48.1437 250.498 50.1193 250.004 52.0597 250.292C54.0002 250.581 55.7465 251.629 56.9146 253.206Z" fill="#587EEC"/>
<path d="M80.1922 264.131C80.4441 268.208 73.8113 280.494 73.8113 280.494C73.8113 280.494 65.6878 269.135 65.431 265.059C65.3333 263.115 66.0049 261.211 67.3003 259.76C68.5957 258.308 70.4105 257.426 72.3515 257.304C74.2925 257.182 76.2034 257.83 77.6701 259.108C79.1368 260.386 80.0411 262.191 80.1872 264.131H80.1922Z" fill="#587EEC"/>
<path d="M102.755 295.536C100.921 299.185 88.9905 306.441 88.9905 306.441C88.9905 306.441 87.7163 292.533 89.5495 288.884C90.4519 287.169 91.9914 285.876 93.8368 285.284C95.6821 284.693 97.6857 284.85 99.4164 285.722C101.147 286.594 102.467 288.111 103.091 289.946C103.715 291.782 103.594 293.789 102.755 295.536Z" fill="#587EEC"/>
<path d="M114.484 323.131C113.29 327.037 102.759 336.203 102.759 336.203C102.759 336.203 99.1484 322.713 100.342 318.802C100.916 316.926 102.211 315.354 103.943 314.434C105.674 313.513 107.701 313.318 109.576 313.892C111.451 314.466 113.022 315.762 113.942 317.494C114.863 319.227 115.058 321.255 114.484 323.131Z" fill="#587EEC"/>
<path d="M61.8047 290.371C65.8337 290.915 78.5704 285.16 78.5704 285.16C78.5704 285.16 67.8231 276.251 63.7739 275.707C61.8305 275.445 59.8629 275.967 58.304 277.158C56.7452 278.348 55.7227 280.109 55.4616 282.054C55.2004 283.998 55.722 285.967 56.9116 287.527C58.1012 289.087 59.8613 290.11 61.8047 290.371Z" fill="#587EEC"/>
<path d="M75.9314 322.476C79.9604 321.786 90.3703 312.488 90.3703 312.488C90.3703 312.488 77.4473 307.207 73.4233 307.897C72.4599 308.055 71.5373 308.403 70.7088 308.92C69.8802 309.436 69.1622 310.112 68.5961 310.908C68.0299 311.704 67.6269 312.604 67.4103 313.556C67.1937 314.509 67.1678 315.495 67.3341 316.458C67.5003 317.42 67.8555 318.34 68.379 319.165C68.9026 319.989 69.5842 320.702 70.3844 321.261C71.1847 321.821 72.0877 322.216 73.0415 322.425C73.9953 322.633 74.9809 322.651 75.9415 322.476H75.9314Z" fill="#587EEC"/>
<path d="M93.936 351.8C98.0204 351.8 109.856 344.397 109.856 344.397C109.856 344.397 98.0153 337.004 93.9309 337.004C91.9701 337.004 90.0896 337.784 88.7031 339.171C87.3166 340.558 86.5377 342.44 86.5377 344.402C86.5377 346.364 87.3166 348.245 88.7031 349.633C90.0896 351.02 91.9701 351.8 93.9309 351.8H93.936Z" fill="#587EEC"/>
<path d="M391.523 175.133C391.523 175.133 408.596 144.872 434.331 136.154C445.138 132.563 454.489 125.563 460.983 116.203C464.029 111.729 466.657 106.984 468.835 102.028" stroke="#9AB1F3" stroke-width="2" stroke-miterlimit="10"/>
<path d="M484.991 96.4847C482.06 99.3268 468.417 102.27 468.417 102.27C468.417 102.27 471.766 88.7141 474.697 85.8669C476.112 84.5415 477.99 83.825 479.928 83.8716C481.865 83.9183 483.707 84.7243 485.056 86.1162C486.406 87.5081 487.155 89.3746 487.143 91.3138C487.131 93.2531 486.358 95.1099 484.991 96.4847Z" fill="#587EEC"/>
<path d="M449.193 147.538C445.336 146.202 436.567 135.338 436.567 135.338C436.567 135.338 450.165 132.223 454.033 133.559C454.962 133.867 455.821 134.357 456.56 135.001C457.298 135.644 457.902 136.427 458.335 137.306C458.768 138.184 459.023 139.14 459.084 140.118C459.145 141.096 459.012 142.076 458.691 143.002C458.371 143.927 457.87 144.78 457.217 145.511C456.565 146.241 455.773 146.834 454.89 147.256C454.006 147.678 453.048 147.92 452.07 147.969C451.092 148.017 450.114 147.871 449.193 147.538Z" fill="#587EEC"/>
<path opacity="0.25" d="M484.991 96.4847C482.06 99.3268 468.417 102.27 468.417 102.27C468.417 102.27 471.766 88.7141 474.697 85.8669C476.112 84.5415 477.99 83.825 479.928 83.8716C481.865 83.9183 483.707 84.7243 485.056 86.1162C486.406 87.5081 487.155 89.3746 487.143 91.3138C487.131 93.2531 486.358 95.1099 484.991 96.4847Z" fill="black"/>
<path d="M477.275 120.991C473.246 121.787 460.218 116.838 460.218 116.838C460.218 116.838 470.391 107.264 474.395 106.483C475.356 106.269 476.35 106.25 477.319 106.426C478.288 106.603 479.212 106.971 480.037 107.509C480.861 108.048 481.57 108.746 482.122 109.562C482.673 110.378 483.056 111.297 483.248 112.263C483.44 113.229 483.437 114.225 483.239 115.19C483.041 116.155 482.653 117.071 482.097 117.884C481.54 118.697 480.827 119.391 479.999 119.924C479.171 120.458 478.245 120.82 477.275 120.991Z" fill="#587EEC"/>
<path opacity="0.25" d="M477.275 120.991C473.246 121.787 460.218 116.838 460.218 116.838C460.218 116.838 470.391 107.264 474.395 106.483C475.356 106.269 476.35 106.25 477.319 106.426C478.288 106.603 479.212 106.971 480.037 107.509C480.861 108.048 481.57 108.746 482.122 109.562C482.673 110.378 483.056 111.297 483.248 112.263C483.44 113.229 483.437 114.225 483.239 115.19C483.041 116.155 482.653 117.071 482.097 117.884C481.54 118.697 480.827 119.391 479.999 119.924C479.171 120.458 478.245 120.82 477.275 120.991V120.991Z" fill="black"/>
<path opacity="0.25" d="M449.193 147.538C445.336 146.202 436.567 135.338 436.567 135.338C436.567 135.338 450.165 132.223 454.033 133.559C454.962 133.867 455.821 134.357 456.56 135.001C457.298 135.644 457.902 136.427 458.335 137.306C458.768 138.184 459.023 139.14 459.084 140.118C459.145 141.096 459.012 142.076 458.691 143.002C458.371 143.927 457.87 144.78 457.217 145.511C456.565 146.241 455.773 146.834 454.89 147.256C454.006 147.678 453.048 147.92 452.07 147.969C451.092 148.017 450.114 147.871 449.193 147.538Z" fill="black"/>
<path d="M448.841 106.241C448.836 110.328 456.244 122.185 456.244 122.185C456.244 122.185 463.642 110.343 463.642 106.261C463.668 105.274 463.496 104.291 463.136 103.371C462.776 102.451 462.236 101.613 461.547 100.906C460.858 100.198 460.035 99.6359 459.126 99.252C458.216 98.868 457.239 98.6702 456.252 98.6702C455.265 98.6702 454.287 98.868 453.378 99.252C452.468 99.6359 451.645 100.198 450.956 100.906C450.267 101.613 449.727 102.451 449.367 103.371C449.007 104.291 448.835 105.274 448.861 106.261L448.841 106.241Z" fill="#587EEC"/>
<path opacity="0.25" d="M448.841 106.241C448.836 110.328 456.244 122.185 456.244 122.185C456.244 122.185 463.642 110.343 463.642 106.261C463.668 105.274 463.496 104.291 463.136 103.371C462.776 102.451 462.236 101.613 461.547 100.906C460.858 100.198 460.035 99.6359 459.126 99.252C458.216 98.868 457.239 98.6702 456.252 98.6702C455.265 98.6702 454.287 98.868 453.378 99.252C452.468 99.6359 451.645 100.198 450.956 100.906C450.267 101.613 449.727 102.451 449.367 103.371C449.007 104.291 448.835 105.274 448.861 106.261L448.841 106.241Z" fill="black"/>
<path d="M392.505 174.533C392.505 174.533 395.859 139.943 415.833 121.55C424.258 113.884 429.972 103.693 432.12 92.5037C433.098 87.1844 433.585 81.7865 433.576 76.3781" stroke="#9AB1F3" stroke-width="2" stroke-miterlimit="10"/>
<path d="M446.096 64.7071C444.585 68.4966 433.284 76.7207 433.284 76.7207C433.284 76.7207 430.856 62.9685 432.382 59.179C433.117 57.3594 434.544 55.9063 436.349 55.1394C438.155 54.3724 440.191 54.3546 442.009 55.0896C443.828 55.8247 445.28 57.2525 446.046 59.059C446.813 60.8654 446.831 62.9026 446.096 64.7222V64.7071Z" fill="#587EEC"/>
<path d="M448.972 90.2663C445.633 92.6146 431.697 93.3856 431.697 93.3856C431.697 93.3856 437.126 80.5153 440.465 78.167C441.257 77.574 442.16 77.146 443.12 76.9083C444.08 76.6707 445.078 76.6283 446.055 76.7835C447.032 76.9388 447.968 77.2886 448.807 77.8123C449.647 78.3359 450.372 79.0227 450.942 79.8321C451.511 80.6414 451.912 81.5569 452.121 82.5241C452.331 83.4914 452.344 84.4909 452.16 85.4633C451.976 86.4358 451.6 87.3615 451.052 88.1857C450.504 89.0098 449.797 89.7156 448.972 90.2612V90.2663Z" fill="#587EEC"/>
<path d="M434.034 125.934C429.965 126.277 417.546 119.887 417.546 119.887C417.546 119.887 428.726 111.522 432.795 111.179C434.75 111.015 436.689 111.634 438.187 112.9C439.685 114.167 440.619 115.977 440.783 117.932C440.947 119.887 440.329 121.828 439.063 123.326C437.797 124.825 435.988 125.76 434.034 125.924V125.934Z" fill="#587EEC"/>
<path d="M417.007 88.311C418.659 92.0451 430.212 99.9013 430.212 99.9013C430.212 99.9013 432.176 86.0735 430.524 82.3394C429.701 80.5924 428.228 79.2367 426.419 78.5622C424.61 77.8876 422.609 77.9476 420.844 78.7293C419.079 79.5111 417.69 80.9526 416.973 82.7458C416.256 84.539 416.268 86.5418 417.007 88.3261V88.311Z" fill="#587EEC"/>
</svg>
