<svg width="247" height="392" viewBox="0 0 247 392" fill="none" xmlns="http://www.w3.org/2000/svg">
<path d="M228.704 196.795L234.551 202.983C234.551 202.983 239.23 237.084 241.567 240.274C243.904 243.464 249.423 256.152 244.241 265.682C244.241 265.682 242.574 270.867 243.576 273.039C244.578 275.211 236.057 286.081 236.057 286.081C236.057 286.081 224.862 296.109 222.52 297.616C220.178 299.122 207.819 311.156 203.644 311.322C199.469 311.489 198.104 316.674 198.104 316.674L174.544 317.511C174.544 317.511 161.521 316.83 158.7 318.67C158.7 318.67 160.211 298.775 145.672 285.733L164.215 279.046C164.215 279.046 171.236 276.022 173.406 272.863C174.772 270.926 176.709 269.465 178.946 268.685C178.946 268.685 184.123 265.006 184.289 263.001C184.456 260.995 190.62 258.536 190.62 258.536L187.13 228.729L188.968 179.243C188.968 179.243 194.815 137.78 207.179 140.123C219.543 142.466 228.704 196.795 228.704 196.795Z" fill="#E8F5FF"/>
<path d="M201.388 168.837C197.359 168.172 186.903 158.925 186.903 158.925C186.903 158.925 199.791 153.553 203.815 154.218C205.752 154.537 207.483 155.612 208.627 157.208C209.771 158.804 210.235 160.789 209.916 162.727C209.598 164.665 208.523 166.397 206.928 167.541C205.334 168.686 203.35 169.151 201.413 168.832L201.388 168.837Z" fill="#587EEC"/>
<path d="M196.91 130.513C198.129 134.414 208.725 143.509 208.725 143.509C208.725 143.509 212.251 129.994 211.022 126.094C210.385 124.287 209.071 122.798 207.359 121.94C205.646 121.082 203.668 120.923 201.84 121.496C200.013 122.069 198.478 123.329 197.561 125.011C196.643 126.693 196.414 128.665 196.92 130.513H196.91Z" fill="#587EEC"/>
<path d="M170.284 152.268C170.828 156.299 179.732 167.068 179.732 167.068C179.732 167.068 185.478 154.344 184.934 150.297C184.826 149.317 184.523 148.368 184.044 147.506C183.564 146.645 182.917 145.888 182.14 145.28C181.364 144.672 180.474 144.226 179.522 143.968C178.571 143.709 177.577 143.644 176.6 143.775C175.623 143.907 174.683 144.232 173.833 144.733C172.984 145.234 172.243 145.899 171.654 146.69C171.066 147.482 170.641 148.383 170.406 149.341C170.171 150.298 170.129 151.294 170.284 152.268Z" fill="#587EEC"/>
<path opacity="0.25" d="M201.388 168.837C197.359 168.172 186.903 158.925 186.903 158.925C186.903 158.925 199.791 153.553 203.815 154.218C205.752 154.537 207.483 155.612 208.627 157.208C209.771 158.804 210.235 160.789 209.916 162.727C209.598 164.665 208.523 166.397 206.928 167.541C205.334 168.686 203.35 169.151 201.413 168.832L201.388 168.837Z" fill="black"/>
<path opacity="0.25" d="M170.284 152.268C170.828 156.299 179.732 167.068 179.732 167.068C179.732 167.068 185.478 154.344 184.934 150.297C184.826 149.317 184.523 148.368 184.044 147.506C183.564 146.645 182.917 145.888 182.14 145.28C181.364 144.672 180.474 144.226 179.522 143.968C178.571 143.709 177.577 143.644 176.6 143.775C175.623 143.907 174.683 144.232 173.833 144.733C172.984 145.234 172.243 145.899 171.654 146.69C171.066 147.482 170.641 148.383 170.406 149.341C170.171 150.298 170.129 151.294 170.284 152.268Z" fill="black"/>
<path d="M194.654 156.37C190.701 157.378 177.385 153.21 177.385 153.21C177.385 153.21 186.989 143.076 190.942 142.048C192.84 141.556 194.856 141.838 196.546 142.832C198.237 143.827 199.463 145.453 199.955 147.352C200.447 149.251 200.165 151.268 199.171 152.959C198.177 154.65 196.552 155.877 194.654 156.37Z" fill="#587EEC"/>
<path d="M175.043 123.146C177.737 126.215 191.104 130.236 191.104 130.236C191.104 130.236 188.847 116.454 186.153 113.385C185.517 112.639 184.739 112.028 183.865 111.585C182.991 111.143 182.037 110.879 181.06 110.809C180.083 110.738 179.102 110.863 178.173 111.175C177.245 111.488 176.388 111.982 175.652 112.629C174.915 113.275 174.315 114.062 173.886 114.943C173.456 115.824 173.205 116.781 173.149 117.76C173.092 118.738 173.23 119.718 173.556 120.643C173.881 121.568 174.386 122.418 175.043 123.146Z" fill="#587EEC"/>
<path d="M159.486 153.845C161.621 157.322 174.116 163.546 174.116 163.546C174.116 163.546 174.222 149.582 172.102 146.1C171.046 144.492 169.407 143.359 167.53 142.94C165.654 142.522 163.688 142.852 162.05 143.859C160.413 144.867 159.232 146.473 158.758 148.337C158.284 150.201 158.554 152.177 159.511 153.845H159.486Z" fill="#587EEC"/>
<path d="M144.82 45.0723C145.656 42.0034 146.664 38.9194 147.369 35.8101C146.523 38.9194 145.51 42.0135 144.82 45.0723Z" fill="url(#paint0_linear_165_15)"/>
<path d="M31.0313 148.649L28.0095 149.985C28.0095 149.985 8.31274 226.552 8.31274 232.74C8.31274 238.928 50.0784 273.362 50.0784 273.362L56.5953 229.348C56.5953 229.348 47.238 128.417 31.0313 148.649Z" fill="#E8F5FF"/>
<path d="M122.646 124.295L105.195 115.184C104.218 111.014 102.483 107.06 100.078 103.518C97.5248 99.829 94.1304 96.2058 89.8999 94.316C79.208 89.5187 135.125 64.3374 135.125 64.3374C136.006 67.3624 137.043 70.3396 138.233 73.2569C141.114 80.3724 145.893 89.5741 152.052 92.1945C162.523 96.6543 122.646 124.295 122.646 124.295Z" fill="#FFB0B1"/>
<path opacity="0.1" d="M138.233 73.2569C135.844 81.6649 130.875 89.1095 124.029 94.5393C117.183 99.9691 108.805 103.11 100.078 103.518C97.5248 99.829 94.1304 96.2058 89.8999 94.316C79.208 89.5186 135.125 64.3374 135.125 64.3374C136.006 67.3624 137.043 70.3396 138.233 73.2569Z" fill="black"/>
<path d="M139.804 60.5429C139.806 68.789 137.364 76.8505 132.787 83.7078C128.21 90.5651 121.703 95.9102 114.09 99.067C106.476 102.224 98.0982 103.051 90.0152 101.443C81.9322 99.8348 74.5073 95.8645 68.6795 90.0339C62.8518 84.2034 58.883 76.7745 57.2751 68.6869C55.6672 60.5992 56.4924 52.2161 59.6464 44.5977C62.8004 36.9794 68.1415 30.4681 74.9941 25.8873C81.8468 21.3065 89.9032 18.862 98.1444 18.863C103.622 18.8377 109.05 19.8984 114.116 21.984C119.181 24.0695 123.784 27.1386 127.657 31.0139C131.531 34.8893 134.598 39.494 136.683 44.5624C138.768 49.6307 139.829 55.0621 139.804 60.5429Z" fill="#FFB0B1"/>
<path d="M145.817 118.943L134.456 145.47L124.434 163.077H92.3526L82.9952 139.004L86.7876 114.04H111.289L127.108 113.148L132.451 111.364L135.896 113.319L145.817 118.943Z" fill="#575A89"/>
<path opacity="0.1" d="M141.904 83.5824C141.904 83.5824 148.99 85.0942 142.645 90.2997C136.299 95.5053 114.406 112.059 114.406 112.059C114.406 112.059 122.097 118.913 120.505 126.94L145.984 112.73L150.516 89.9923C150.516 89.9923 151.025 83.1591 141.904 83.5824Z" fill="black"/>
<path opacity="0.1" d="M119.417 112.059L103.211 114.735C103.211 114.735 106.555 127.107 104.883 130.619C104.832 130.728 104.79 130.841 104.757 130.957L98.1443 148.841L103.1 162.886L120.253 139.478L114.406 130.619C114.406 130.619 120.586 122.425 124.262 119.583C127.939 116.741 119.417 112.059 119.417 112.059Z" fill="black"/>
<path d="M119.417 111.369L103.211 114.04C103.211 114.04 106.555 126.411 104.883 129.924C104.832 130.033 104.79 130.146 104.757 130.261L98.1443 148.146L103.1 162.19L120.253 138.768L114.406 129.908C114.406 129.908 120.586 121.715 124.262 118.872C127.939 116.03 119.417 111.369 119.417 111.369Z" fill="#DCE6F2"/>
<path d="M142.584 82.247C142.584 82.247 149.67 83.7588 143.32 88.9643C136.969 94.1699 114.406 112.059 114.406 112.059C114.406 112.059 122.762 117.577 121.175 125.6L146.654 111.394L151.186 88.6569C151.186 88.6569 151.69 81.8237 142.584 82.247Z" fill="#575A89"/>
<path opacity="0.1" d="M101.191 105.095C101.191 105.095 102.738 107.988 109.562 113.203C109.562 113.203 98.1999 119.25 102.546 127.752L85.1661 123.216L82.4918 114.856L101.191 105.095Z" fill="black"/>
<path d="M100.521 104.43C100.521 104.43 102.067 107.322 108.892 112.538C108.892 112.538 97.5298 118.555 101.876 127.081L84.501 122.546L81.8268 114.191L100.521 104.43Z" fill="#575A89"/>
<path opacity="0.1" d="M145.817 118.943L134.456 145.47L124.454 163.077H92.3526L82.9952 139.004L86.7825 114.04H93.5965C93.4858 119.865 95.6111 126.709 95.4751 129.253C95.2434 133.436 101.71 156.002 101.71 156.002C101.71 156.002 115.242 134.101 120.586 132.151C123.945 130.926 131.061 120.737 135.891 113.319L145.817 118.943Z" fill="black"/>
<path d="M190.575 258.536L189.421 259.987C189.421 259.987 197.777 301.949 195.465 311.479C195.072 313.196 194.848 314.948 194.795 316.709V316.785C194.387 326.481 197.313 339.064 197.313 339.064C197.313 339.064 199.65 376.153 198.32 391.407H41.8844C40.9678 368.851 39.9807 339.628 40.8771 336.388C42.388 331.041 45.4097 311.645 45.4097 311.645L45.7421 302.453C45.7421 302.453 45.7421 293.569 46.0141 283.672C46.1299 279.222 46.3012 274.551 46.5479 270.409C46.8652 265.198 47.3084 260.809 47.9178 258.652C48.2932 257.017 48.5091 255.35 48.5624 253.673C48.5624 253.517 48.5624 253.356 48.5926 253.194C48.5926 252.69 48.643 252.146 48.6632 251.587C48.6632 251.431 48.6632 251.274 48.6632 251.083C48.7589 247.838 48.7236 243.988 48.6178 239.997C48.6178 239.78 48.6178 239.558 48.6178 239.336C48.5322 236.343 48.4063 233.289 48.2653 230.387C47.8271 221.316 47.258 213.646 47.258 213.646L28.0447 149.95L33.222 137.19L47.5904 128.382L74.1567 112.332C87.115 101.673 95.6464 102.953 98.8998 104.123C99.2158 104.23 99.5252 104.357 99.8264 104.501C99.9272 104.551 100.008 104.591 100.083 104.637C100.187 104.686 100.286 104.743 100.38 104.808C99.4896 105.237 98.7155 105.875 98.1242 106.667C97.458 107.569 96.9833 108.598 96.7292 109.691C96.559 110.368 96.4395 111.057 96.3716 111.752C96.3061 112.483 96.2809 113.239 96.2809 114C96.3169 115.668 96.4598 117.333 96.709 118.983C96.709 119.014 96.709 119.054 96.709 119.094C96.8752 120.273 97.0817 121.427 97.2831 122.511C97.2809 122.529 97.2809 122.548 97.2831 122.566C97.5148 123.831 97.7465 125 97.9026 126.008C97.9328 126.19 97.958 126.356 97.9832 126.512C98.0942 127.178 98.1464 127.853 98.1393 128.528C98.196 130.158 98.4153 131.779 98.794 133.365C98.925 134.031 99.0761 134.741 99.2423 135.482C99.4689 136.49 99.7157 137.588 99.9826 138.707C100.129 139.322 100.285 139.957 100.446 140.587C100.506 140.839 100.572 141.091 100.632 141.348L100.733 141.746C101.806 146.014 102.969 150.262 103.684 152.832C104.107 154.344 104.374 155.276 104.374 155.276C104.374 155.276 111.959 143.006 118.012 136.021C118.103 135.92 118.184 135.825 118.269 135.734C118.869 135.044 119.458 134.414 120.022 133.859C121.256 132.63 122.364 131.753 123.255 131.43C123.445 131.361 123.629 131.275 123.804 131.173C126.282 129.767 130.281 124.663 134.023 119.316C134.39 118.812 134.748 118.263 135.11 117.744C135.941 116.544 136.747 115.34 137.508 114.186C138.092 113.304 138.651 112.447 139.18 111.631C141.698 107.711 143.471 104.788 143.471 104.788L146.966 104.632L147.575 104.601H147.983L163.852 103.866C163.852 103.866 164.537 103.981 165.665 104.208C165.726 104.208 165.786 104.208 165.852 104.249C171.482 105.367 187.125 108.91 188.082 113.823C189.25 119.84 214.482 127.868 214.482 127.868C214.814 131.899 220.994 134.555 220.994 134.555C220.994 134.555 230.351 159.298 227.848 168.993C225.375 178.568 234.284 202.252 234.521 202.918L232.814 205.074L190.575 258.536Z" fill="#E8F5FF"/>
<path opacity="0.1" d="M141.899 81.8238C141.899 81.8238 157.345 77.4396 160.856 86.465C164.366 95.4903 172.218 131.939 172.218 131.939C172.218 131.939 151.831 135.784 146.487 131.939C143.353 129.657 139.474 128.642 135.624 129.097L124.096 136.953L120.692 135.946C120.692 135.946 139.134 108.512 143.143 99.1891C147.152 89.8665 148.507 85.699 141.899 81.8238Z" fill="black"/>
<path d="M141.23 79.808C141.23 79.808 156.686 75.4239 160.211 84.4492C163.737 93.4745 171.573 129.924 171.573 129.924C171.573 129.924 151.191 133.769 145.843 129.924C142.71 127.642 138.833 126.626 134.985 127.081L123.447 134.938L120.042 133.93C120.042 133.93 138.485 106.496 142.494 97.1733C146.502 87.8507 147.837 83.6933 141.23 79.808Z" fill="#E8F5FF"/>
<path opacity="0.1" d="M37.5483 225.216C37.5483 225.216 49.0763 228.058 51.252 234.579C53.4276 241.1 42.7306 241.266 42.7306 241.266C42.7306 241.266 36.2137 229.731 37.5483 225.216Z" fill="black"/>
<path opacity="0.1" d="M80.4873 273.362C80.4873 273.362 52.2541 331.207 58.771 336.725C65.2879 342.243 80.4873 273.362 80.4873 273.362Z" fill="black"/>
<path opacity="0.1" d="M119.417 230.734C119.417 230.734 141.975 286.922 137.462 295.6C132.95 304.278 147.152 295.6 147.152 295.6L119.417 230.734Z" fill="black"/>
<path d="M150.829 286.237C150.829 286.237 74.6403 289.916 96.8653 313.656C119.09 337.396 164.699 314.663 164.699 314.663L150.829 286.237Z" fill="#FFB0B1"/>
<path opacity="0.1" d="M139.804 60.5428C139.811 66.0105 138.738 71.4256 136.647 76.477C135.947 76.5576 135.247 76.608 134.572 76.6382C133.564 74.426 134.103 71.8711 134.123 69.4371C134.144 67.0031 133.247 64.1408 130.905 63.4857C126.237 62.1705 123.013 70.9035 118.41 69.3262C114.885 68.1269 115.807 62.7752 113.777 59.6861C112.17 57.2421 108.952 56.5517 106.449 55.0197C101.126 51.7492 101.287 46.5185 98.8143 41.5699C96.2256 36.3845 90.7562 37.9164 86.007 40.9753C82.4011 43.3034 79.2887 46.4227 75.4309 48.2772C72.0919 49.8897 68.3399 50.4743 64.6382 50.56C62.3593 50.6483 60.0796 50.4073 57.8695 49.8444C60.4692 40.0651 66.5348 31.5658 74.9354 25.9314C83.3359 20.297 93.4978 17.9121 103.526 19.2216C113.554 20.5311 122.764 25.4455 129.438 33.0484C136.112 40.6512 139.795 50.4235 139.799 60.5428H139.804Z" fill="black"/>
<path d="M86.0223 39.64C82.4113 41.9681 79.3039 45.0824 75.4461 46.9469C72.1071 48.5545 68.3551 49.139 64.6534 49.2247C60.1208 49.3255 55.2407 48.5293 52.1434 45.2537C49.2979 42.2302 48.618 37.5789 49.8217 33.613C51.0253 29.6471 53.9111 26.3565 57.3005 23.9729C60.6899 21.5893 64.6232 19.9415 66.8694 16.5299C68.0579 14.7258 68.6321 12.5992 69.6192 10.6793C72.7769 4.53641 79.878 1.21048 86.7425 0.797263C93.6069 0.384042 100.411 2.42999 106.948 4.64727C113.485 6.86455 120.072 9.30356 126.972 9.76213C130.044 9.95363 133.237 9.76213 136.088 10.9262C139.92 12.4833 142.433 16.2074 144.146 19.9969C146.064 24.2702 147.258 28.9366 147.057 33.6029C146.634 43.5656 140.056 53.3418 142.947 62.8862C143.713 65.431 145.148 68.0414 144.382 70.5862C143.264 74.3001 138.475 75.1467 134.602 75.3231C133.595 73.1109 134.134 70.5509 134.154 68.122C134.174 65.6931 133.277 62.8257 130.941 62.1706C126.267 60.8654 123.044 69.5834 118.451 68.0111C114.951 66.8067 115.857 61.4601 113.822 58.371C112.216 55.9219 108.993 55.2366 106.495 53.7046C101.171 50.4341 101.332 45.2034 98.8597 40.2548C96.2509 35.0442 90.7765 36.5761 86.0223 39.64Z" fill="#575A89"/>
<path d="M12.1452 231.399L8.30255 232.74C8.30255 232.74 9.81343 255.477 4.77718 261.998C-0.259076 268.519 21.3162 284.73 21.3162 284.73C21.3162 284.73 50.8891 284.564 51.7251 282.21C52.5611 279.857 50.2143 240.082 50.2143 240.082C50.2143 240.082 34.34 233.894 35.6746 224.032C35.6746 224.032 30.8297 247.268 23.648 246.265C16.4663 245.263 8.31263 239.261 12.1452 231.399Z" fill="#E8F5FF"/>
<path opacity="0.1" d="M24.9626 253.3C30.5617 253.3 35.1006 249.147 35.1006 244.023C35.1006 238.899 30.5617 234.746 24.9626 234.746C19.3636 234.746 14.8246 238.899 14.8246 244.023C14.8246 249.147 19.3636 253.3 24.9626 253.3Z" fill="black"/>
<path d="M36.0475 232.07C36.0475 232.07 34.033 170.55 16.4967 184.257C-1.03948 197.964 -1.21073 214.357 2.1283 219.199C5.46734 224.042 16.1744 248.286 16.1744 248.286C17.8492 249.257 19.7302 249.818 21.6632 249.921C23.5962 250.025 25.5262 249.669 27.2951 248.882C29.064 248.095 30.6215 246.901 31.8399 245.396C33.0584 243.89 33.9031 242.118 34.3049 240.223L36.0475 232.07Z" fill="#FFB0B1"/>
<path opacity="0.1" d="M145.44 76.2402C145.358 75.9699 145.201 75.7286 144.986 75.5448C144.12 74.7536 142.257 74.4764 139.447 74.7183L139.562 76.0487C143.309 75.7262 144.05 76.472 144.145 76.598V76.724L144.261 76.8903C144.728 77.5185 145.059 78.2375 145.233 79.0011C145.406 79.7648 145.418 80.5562 145.268 81.3248C144.448 85.4318 139.406 88.7023 139.356 88.7376L139.235 88.8082L139.16 88.9241C136.984 92.1542 124.68 101.27 121.462 103.629L121.18 103.306C119.74 104.556 107.079 115.647 106.394 119.895C105.95 122.561 102.949 123.594 101.861 123.882C100.713 123.01 96.9859 120.042 95.047 116.716C93.2289 113.586 100.547 107.479 101.191 105.095L100.184 104.062C100.078 104.445 90.6806 113.234 93.2944 117.724C95.3895 121.327 99.217 124.411 100.557 125.429C100.129 129.319 97.4644 152.162 93.3699 157.574C88.2833 164.302 84.0075 198.206 84.4809 210.043C84.8989 220.56 82.1542 240.425 72.9882 248.956C71.4013 250.498 69.4869 251.661 67.3879 252.359C65.2889 253.057 63.0595 253.272 60.866 252.988H60.7552H60.6444C60.5134 252.988 47.2177 254.348 36.0473 244.925C26.9065 237.23 21.7293 224.672 20.6515 207.589H20.4299L20.3393 202.615C22.8177 202.228 25.0497 200.895 26.5663 198.896C28.0829 196.897 28.7661 194.387 28.4723 191.894C28.1785 189.402 26.9306 187.12 24.9908 185.529C23.051 183.937 20.5702 183.16 18.0698 183.361C15.5694 183.561 13.244 184.724 11.5822 186.604C9.92042 188.484 9.05158 190.935 9.15825 193.443C9.26493 195.951 10.3388 198.319 12.1543 200.051C13.9698 201.783 16.3855 202.744 18.8939 202.731H19.0046L19.0953 207.675L18.6521 207.705C19.7601 225.342 25.1992 238.389 34.7681 246.447C42.0411 252.477 51.3313 255.519 60.7602 254.958C61.4292 255.031 62.1017 255.068 62.7747 255.069C67.0966 255.091 71.2551 253.418 74.3581 250.408C84.0126 241.413 86.9487 220.817 86.4904 209.942C85.9868 197.399 90.4741 164.715 94.9765 158.763C99.3882 152.923 102.062 130.165 102.531 125.756C104.127 125.308 107.738 123.892 108.353 120.213C108.796 117.552 117.252 109.353 122.454 104.813L122.298 104.631C125.098 102.586 133.806 96.1353 138.122 91.993C139.462 90.708 140.791 89.4229 142.181 88.1984C143.853 86.7168 145.979 84.3635 146.538 81.5818C146.728 80.6636 146.729 79.7161 146.54 78.7975C146.352 77.8789 145.977 77.0086 145.44 76.2402Z" fill="black"/>
<path d="M100.386 125.111C100.174 124.965 95.158 121.372 92.6449 117.048C90.0361 112.558 99.4338 103.775 99.5345 103.392L100.542 104.425C99.9021 106.803 92.5844 112.916 94.4025 116.04C96.694 119.986 101.519 123.438 101.569 123.473L100.386 125.111Z" fill="#353146"/>
<path d="M120.808 104.606L120.022 103.523C120.183 103.407 136.002 91.9578 138.495 88.2539L138.575 88.143L138.691 88.0675C138.742 88.0322 143.783 84.7667 144.604 80.6547C144.755 79.8869 144.744 79.0959 144.57 78.3329C144.397 77.5699 144.065 76.8518 143.597 76.2252L143.481 76.0538V75.9329C143.38 75.8019 142.64 75.0611 138.893 75.3836L138.777 74.0482C141.592 73.8063 143.451 74.0835 144.317 74.8746C144.532 75.0603 144.691 75.3031 144.775 75.5751C145.32 76.3413 145.702 77.211 145.897 78.1305C146.093 79.0501 146.099 80 145.913 80.9218C145.354 83.7085 143.234 86.0618 141.557 87.5383C140.172 88.7629 138.837 90.058 137.503 91.3329C132.441 96.1857 121.362 104.208 120.808 104.606Z" fill="#E8F5FF"/>
<path d="M19.6894 200.861L18.355 200.885L18.5037 209.002L19.8381 208.978L19.6894 200.861Z" fill="#E8F5FF"/>
<path d="M18.2442 202.091C23.6263 202.091 27.9893 197.725 27.9893 192.34C27.9893 186.955 23.6263 182.589 18.2442 182.589C12.8621 182.589 8.49902 186.955 8.49902 192.34C8.49902 197.725 12.8621 202.091 18.2442 202.091Z" fill="#587EEC"/>
<path d="M18.2443 200.438C22.7141 200.438 26.3375 196.813 26.3375 192.34C26.3375 187.868 22.7141 184.242 18.2443 184.242C13.7745 184.242 10.151 187.868 10.151 192.34C10.151 196.813 13.7745 200.438 18.2443 200.438Z" fill="#E8F5FF"/>
<path d="M62.1402 254.419C61.4672 254.42 60.7948 254.385 60.1256 254.313C50.6974 254.869 41.4093 251.827 34.1335 245.802C24.5646 237.739 19.1356 224.707 18.0175 207.055L20.032 206.929C21.1098 224.012 26.2871 236.575 35.4329 244.265C46.6033 253.663 59.894 252.328 60.0249 252.328H60.1357H60.2465C62.4408 252.611 64.6706 252.395 66.7701 251.697C68.8697 250.999 70.7851 249.837 72.3738 248.296C81.5348 239.765 84.2795 219.9 83.8615 209.383C83.3579 197.536 87.6337 163.631 92.7253 156.909C97.1824 151.018 99.9473 124.466 99.9775 124.199L100.053 123.443L100.798 123.312C100.844 123.312 105.195 122.486 105.739 119.23C106.444 114.987 119.085 103.896 120.52 102.641L121.835 104.153C116.612 108.688 108.156 116.892 107.733 119.558C107.119 123.247 103.508 124.658 101.916 125.101C101.413 129.515 98.7587 152.268 94.3621 158.108C89.8597 164.06 85.3724 196.744 85.876 209.287C86.3091 220.162 83.4032 240.762 73.7487 249.752C70.6399 252.77 66.4713 254.446 62.1402 254.419Z" fill="#353146"/>
<g opacity="0.1">
<path opacity="0.1" d="M144.095 48.63C144.921 45.5762 145.918 42.5022 146.613 39.4081C145.782 42.5173 144.78 45.5762 144.095 48.63Z" fill="black"/>
<path opacity="0.1" d="M135.67 72.627C134.662 70.4148 135.201 67.8549 135.221 65.4259C135.241 62.997 134.345 60.1548 132.008 59.4745C127.335 58.1694 124.111 66.8923 119.518 65.3151C115.993 64.1107 116.925 58.764 114.89 55.6749C113.283 53.2258 110.065 52.5405 107.567 51.0086C102.239 47.7381 102.4 42.5073 99.9323 37.5587C97.3386 32.3683 91.8743 33.9002 87.12 36.9641C83.509 39.2922 80.4017 42.4115 76.5439 44.271C73.2049 45.8786 69.4529 46.4631 65.7512 46.5488C61.2438 46.6546 56.3384 45.8534 53.2411 42.5778C50.854 40.0582 49.9928 36.3644 50.4863 32.9024C50.4007 33.1393 50.3251 33.3761 50.2496 33.613C49.0409 37.5789 49.746 42.2402 52.5713 45.2537C55.6686 48.5292 60.5739 49.3254 65.0814 49.2246C68.7881 49.139 72.535 48.5544 75.8791 46.9469C79.747 45.0824 82.8543 41.9681 86.4552 39.6399C91.2095 36.5761 96.6788 35.0441 99.2675 40.2346C101.735 45.1832 101.579 50.4139 106.902 53.6844C109.421 55.1962 112.619 55.9017 114.23 58.3508C116.245 61.4499 115.353 66.7865 118.859 67.9909C123.447 69.5632 126.67 60.8452 131.343 62.1504C133.68 62.8055 134.582 65.6779 134.557 68.1018C134.531 70.5257 134.008 73.0907 135.005 75.3029C138.878 75.1265 143.667 74.295 144.79 70.566C144.945 70.0308 145.016 69.475 145.002 68.9181C143.365 71.7452 139.155 72.4708 135.67 72.627Z" fill="black"/>
</g>
<path opacity="0.1" d="M206.968 246.784C206.968 246.784 224.177 242.249 228.689 247.792C233.202 253.336 206.968 246.784 206.968 246.784Z" fill="black"/>
<path opacity="0.1" d="M202.959 254.389C208.806 258.486 226.851 258.652 226.851 258.652L202.959 254.389Z" fill="black"/>
<path opacity="0.1" d="M211.813 274.868C212.316 275.035 224.217 287.744 229.213 283.899C234.209 280.054 211.813 274.868 211.813 274.868Z" fill="black"/>
<path opacity="0.1" d="M51.5389 168.207C51.5389 168.207 55.0341 192.285 53.3117 202.091C51.5893 211.898 57.8745 224.047 57.8745 224.047L51.5389 168.207Z" fill="black"/>
<defs>
<linearGradient id="paint0_linear_165_15" x1="146.094" y1="45.0723" x2="146.094" y2="35.8101" gradientUnits="userSpaceOnUse">
<stop stop-color="#808080" stop-opacity="0.25"/>
<stop offset="0.54" stop-color="#808080" stop-opacity="0.12"/>
<stop offset="1" stop-color="#808080" stop-opacity="0.1"/>
</linearGradient>
</defs>
</svg>
