<svg width="147" height="286" viewBox="0 0 147 286" fill="none" xmlns="http://www.w3.org/2000/svg">
<path opacity="0.1" d="M143.656 285.407H133.08L132.189 266.716L131.257 247.37C131.257 247.37 133.659 247.012 137.487 246.478L139.033 246.271H139.159C139.995 250.197 140.821 254.229 141.617 258.255C142.941 265.403 143.631 272.654 143.677 279.924C143.677 280.428 143.677 280.932 143.677 281.405C143.707 282.751 143.677 284.096 143.656 285.407Z" fill="black"/>
<path opacity="0.1" d="M39.119 82.6967C38.691 83.4525 38.273 84.2084 37.8902 84.9845C37.7442 85.2818 37.6031 85.5892 37.4772 85.8966C34.8382 83.2359 28.412 76.9116 24.8262 74.9513C25.698 73.0814 26.8345 71.3469 28.2005 69.8011C28.2005 69.8011 36.747 74.3214 39.119 82.6967Z" fill="black"/>
<path opacity="0.1" d="M97.1619 71.3281C93.1329 74.4927 90.1918 81.966 88.0614 90.185C81.6697 92.1271 74.8718 92.3022 68.3887 90.692C61.9055 89.0818 55.9786 85.7461 51.2364 81.0388C50.2543 74.2509 49.378 68.9848 49.378 68.9848C49.378 68.9848 108.191 62.6353 97.1619 71.3281Z" fill="black"/>
<path opacity="0.1" d="M53.0544 96.4741C53.0544 96.4741 43.9035 92.9466 44.0143 98.2983C44.1251 103.65 46.2454 106.21 45.5755 106.991C44.9057 107.772 45.9079 112.454 45.9079 112.454C45.9079 112.454 58.272 112.454 63.9528 115.014C69.6337 117.574 90.5745 122.703 93.2487 124.266C95.923 125.828 105.839 132.832 105.839 132.832L106.731 119.569C106.731 119.569 96.482 111.098 79.666 106.754C62.8499 102.41 53.0544 96.4741 53.0544 96.4741Z" fill="black"/>
<path opacity="0.1" d="M106.242 30.0968C105.18 32.4955 104.228 34.9849 104.087 37.6557C103.689 45.3658 104.334 62.6051 95.8022 66.4753C91.5768 68.3801 87.0542 64.1975 82.4209 64.0968C79.0869 64.0262 76.0298 66.1427 73.9952 68.7883C71.9606 71.4339 70.6965 74.5734 69.2208 77.5667C67.8776 80.2837 66.3304 82.8948 64.5925 85.3776C64.0731 86.1375 63.5009 86.8599 62.8802 87.5395C57.6781 85.343 53.0456 81.9874 49.3359 77.7282C45.6262 73.4691 42.937 68.4188 41.4734 62.9622C40.0098 57.5056 39.8103 51.7867 40.8901 46.2413C41.9699 40.6959 44.3006 35.4703 47.7045 30.9627C51.1084 26.455 55.4957 22.7844 60.5321 20.2303C65.5685 17.6763 71.1211 16.3063 76.7668 16.2247C82.4125 16.1432 88.0024 17.3522 93.1104 19.7596C98.2184 22.1671 102.71 25.7095 106.242 30.1169V30.0968Z" fill="black"/>
<path opacity="0.1" d="M96.6077 264.574C94.0393 263.46 89.3656 264.126 81.3429 261.682C73.3201 259.238 71.774 248.191 71.774 248.191V248.156C71.6783 247.904 70.9329 246.261 65.8866 240.507C60.3115 234.152 48.2597 202.057 48.2597 202.057C48.2597 202.057 37.5728 190.572 37.9102 186.339C38.2476 182.106 36.0115 170.844 36.2331 158.245C36.4547 145.647 60.2913 137.292 60.2913 137.292C106.187 129.154 95.3789 182.096 94.1551 186.108C92.9313 190.119 99.282 200.953 99.282 200.953C98.3855 205.67 102.958 212.972 102.958 212.972C102.958 212.972 104.066 219.432 104.293 221.886C104.306 222 104.331 222.111 104.369 222.219C105.104 224.532 111.097 226.628 113.535 227.903C116.098 229.244 124.342 240.945 124.342 240.945C126.12 249.537 99.1662 265.703 96.6077 264.574Z" fill="black"/>
<g opacity="0.1">
<path opacity="0.1" d="M24.8513 66.4551C24.8765 66.4954 24.9117 66.5306 24.942 66.5709C25.0931 66.3795 25.2492 66.188 25.4103 66.0066C25.2387 66.1735 25.0515 66.3237 24.8513 66.4551Z" fill="black"/>
<path opacity="0.1" d="M105.482 11.925C104.986 11.4165 104.454 10.9449 103.89 10.514C109.994 18.4358 101.181 25.1682 100.743 33.6947C100.35 41.4048 100.994 58.6492 92.458 62.5093C88.2376 64.4191 83.71 60.2365 79.0817 60.1358C75.7426 60.0652 72.6907 62.1867 70.651 64.8273C68.6113 67.4679 67.3573 70.6124 65.8817 73.6057C64.5355 76.3221 62.9866 78.9331 61.2483 81.4166C60.241 82.8931 59.0626 84.3646 57.461 85.1961C54.6911 86.6423 51.3218 85.831 48.3353 84.8937C45.4311 83.9799 42.5537 82.9721 39.7032 81.8701C39.6973 82.395 39.6536 82.9188 39.5723 83.4374C43.3293 84.9693 47.1418 86.3433 51.0096 87.5595C53.9911 88.4968 57.3603 89.3081 60.1353 87.8618C61.7318 87.0303 62.8901 85.5539 63.9225 84.0773C65.6621 81.5974 67.2094 78.9878 68.5509 76.2715C70.0315 73.2782 71.2805 70.1286 73.3252 67.4881C75.37 64.8475 78.4169 62.731 81.7509 62.8015C86.3842 62.9023 90.9118 67.0849 95.1322 65.175C103.669 61.3149 103.019 44.0706 103.417 36.3605C103.88 27.3956 113.63 20.4112 105.482 11.925Z" fill="black"/>
</g>
<path d="M97.1619 71.9983C93.1329 75.1579 90.1918 82.6362 88.0614 90.8553C84.3447 105.192 83.131 121.817 83.131 121.817C83.131 121.817 51.05 114.459 53.3868 111.118C54.8574 109.017 52.8832 93.1834 51.2364 81.704C50.2543 74.9211 49.378 69.6551 49.378 69.6551C49.378 69.6551 108.191 63.3005 97.1619 71.9983Z" fill="#FFB0B1"/>
<path d="M114.406 53.3177C114.409 62.0826 111.314 70.5661 105.667 77.2667C100.02 83.9674 92.1862 88.4532 83.5518 89.9302C74.9174 91.4072 66.0392 89.7801 58.4885 85.337C50.9377 80.8939 45.2013 73.9212 42.2944 65.653C39.3876 57.3847 39.4977 48.3541 42.6054 40.1593C45.7131 31.9646 51.6179 25.134 59.2748 20.8766C66.9316 16.6193 75.8469 15.2095 84.4427 16.8969C93.0384 18.5844 100.76 23.2601 106.242 30.0967C111.525 36.6822 114.404 44.8734 114.406 53.3177Z" fill="#FFB0B1"/>
<path d="M141.627 285.407H8.99219C9.56632 284.101 9.94907 283.31 9.94907 283.31C9.94907 283.31 20.5605 236.858 25.9543 217.205C25.9559 217.188 25.9559 217.171 25.9543 217.155C26.6282 214.485 27.4418 211.852 28.3918 209.268C28.4532 209.092 28.5325 208.924 28.6285 208.764C31.2977 204.42 34.6418 199.739 29.9631 193.052C25.2845 186.365 26.9414 156.94 26.9414 156.94C26.9414 156.94 32.6223 131.86 38.6356 118.486C39.5481 116.414 40.8433 114.533 42.4531 112.942C42.9764 112.43 43.5351 111.955 44.1251 111.521C44.5736 111.184 45.041 110.873 45.5252 110.589L45.6208 110.529C48.1469 109.096 50.952 108.224 53.8451 107.974C55.9001 107.759 57.9745 107.816 60.0145 108.145C69.7647 109.576 77.5708 111.97 83.7755 114.696C100.592 122.089 105.683 131.996 105.784 132.203L105.824 132.288C106.499 133.866 116.37 156.925 119.926 167.684C120.847 170.486 121.351 172.456 121.15 172.995C120.142 175.666 128.835 209.102 128.835 209.102C128.835 209.102 132.864 225.228 136.893 244.13C137.069 244.916 137.235 245.702 137.396 246.498C138.117 249.93 138.832 253.427 139.522 256.92C140.859 264.117 141.548 271.419 141.582 278.74C141.656 281.021 141.671 283.243 141.627 285.407Z" fill="#EB5569"/>
<path d="M53.0544 95.8038C53.0544 95.8038 43.9035 92.2763 44.0143 97.6281C44.1251 102.98 46.2454 105.54 45.5755 106.321C44.9057 107.102 45.9079 111.783 45.9079 111.783C45.9079 111.783 58.2719 111.783 63.9528 114.348C69.6337 116.913 90.5745 122.038 93.2487 123.595C95.923 125.153 105.839 132.162 105.839 132.162L106.741 118.939C106.741 118.939 96.4921 110.468 79.676 106.124C62.86 101.78 53.0544 95.8038 53.0544 95.8038Z" fill="#EB5569"/>
<path opacity="0.1" d="M80.6782 127.723C80.6782 127.723 98.1641 146.665 97.2727 151.911C96.3813 157.157 80.6782 127.723 80.6782 127.723Z" fill="black"/>
<path opacity="0.1" d="M52.2738 196.151C52.2738 196.151 39.4565 207.968 35.6793 208.638C31.9021 209.309 38.5752 211.536 42.9164 209.757C47.2577 207.978 56.5143 203.297 56.5143 203.297L52.2738 196.151Z" fill="black"/>
<path d="M146.834 285.407H116.944C112.764 281.778 108.811 278.417 106.292 276.396C102.263 273.161 99.3576 268.399 97.5042 264.569C97.0862 263.697 96.7236 262.881 96.4164 262.14C95.8663 260.864 95.3822 259.561 94.9659 258.235L117.1 245.082C118.324 246.123 119.473 247.248 120.54 248.449L120.807 248.756C122.036 250.207 123.119 251.855 123.214 253.206C123.325 254.778 127.697 260.86 132.164 266.701C136.696 272.642 141.34 278.321 141.647 278.704C141.647 278.704 142.412 279.748 143.661 281.35C144.543 282.509 145.631 283.9 146.834 285.407Z" fill="#FFB0B1"/>
<path d="M103.417 36.295C103.014 44.005 103.664 61.2444 95.1273 65.1095C90.9018 67.0144 86.3793 62.8368 81.7459 62.736C78.4119 62.6604 75.3599 64.782 73.3203 67.4226C71.2806 70.0631 70.0266 73.2076 68.5459 76.206C67.2022 78.9227 65.655 81.5338 63.9176 84.0169C62.8801 85.4884 61.7318 86.9649 60.1353 87.7913C57.3553 89.2426 53.9861 88.4263 51.0046 87.494C47.1368 86.2745 43.326 84.9004 39.5723 83.3719C39.6585 82.8048 39.7022 82.2321 39.7033 81.6585C39.5925 81.8702 39.4716 82.0667 39.3507 82.2783L39.114 82.6916C38.686 83.4475 38.2679 84.2033 37.8852 84.9794C37.7391 85.2767 37.5981 85.5841 37.4722 85.8915C36.9657 87.0355 36.6477 88.2539 36.5304 89.4996C36.2736 92.8608 37.9305 96.0507 39.4011 99.0742C45.0568 110.77 48.552 124.447 44.2963 136.718C42.4531 142.054 39.2601 146.796 36.9283 151.951C32.8521 161.082 31.6523 171.238 33.4885 181.068C34.6519 187.176 36.9837 193.223 36.4096 199.416C35.4023 210.074 26.2162 218.006 17.0149 223.459C12.0442 226.392 5.96037 229.002 0.682373 226.684C4.04659 222.753 4.91283 217.316 5.63805 212.186C7.62234 198.193 9.61166 184.194 11.606 170.188C12.4017 164.615 13.1958 159.042 13.9882 153.468C15.4688 142.997 16.9696 132.409 16.043 121.872C15.3681 114.106 13.4644 105.862 16.8286 98.8324C18.6064 95.1083 21.7742 92.0243 22.7613 88.013C23.5722 84.7526 22.8167 81.2856 23.3505 77.9647C23.6427 76.4538 24.1374 74.9893 24.8211 73.6108C25.6918 71.7402 26.8283 70.0055 28.1954 68.4606C26.8457 68.0676 25.5867 67.5284 24.8211 66.3996C26.9867 64.9886 27.3141 61.8088 26.332 59.4202C25.3499 57.0316 23.3858 55.2124 21.6181 53.3277C19.8504 51.443 18.1481 49.2459 17.9265 46.6759C17.4984 41.7827 22.3836 37.9932 23.2448 33.1656C24.1161 28.2523 20.6713 23.475 20.9483 18.5013C21.2706 12.4894 26.7903 8.12036 32.2395 5.58561C40.4627 1.77667 49.5464 0.211963 58.5691 1.05026C65.9119 1.74568 73.0181 4.0184 80.3408 4.90027C84.7576 5.4042 89.2348 5.45459 93.6214 6.23064C98.008 7.00668 102.405 8.64444 105.492 11.8645C113.63 20.3557 103.88 27.3452 103.417 36.295Z" fill="#575A89"/>
<path d="M97.9426 262.558C95.3791 261.44 90.7004 262.11 82.6827 259.661C74.665 257.212 73.1138 246.176 73.1138 246.176V246.14C73.0232 245.883 72.2728 244.246 67.2264 238.491C61.6513 232.136 49.5996 200.036 49.5996 200.036C49.5996 200.036 38.9126 188.557 39.245 184.324C39.5774 180.091 37.3514 168.828 37.573 156.24C37.7946 143.652 61.6161 135.302 61.6161 135.302C107.511 127.163 96.7036 180.106 95.4798 184.117C94.256 188.128 100.607 198.963 100.607 198.963C99.7103 203.679 104.283 210.981 104.283 210.981C104.283 210.981 105.391 217.442 105.623 219.896C105.631 220.009 105.655 220.121 105.693 220.228C106.429 222.541 112.422 224.638 114.864 225.913C117.423 227.248 125.672 238.954 125.672 238.954C127.46 247.531 100.506 263.697 97.9426 262.558Z" fill="#EB5569"/>
<path opacity="0.1" d="M62.5225 162.942C62.5225 162.942 82.5719 184.107 87.8045 184.107C93.0372 184.107 62.5225 162.942 62.5225 162.942Z" fill="black"/>
<path d="M97.9424 262.558C95.3789 261.44 90.7002 262.11 82.6825 259.661C74.6648 257.212 73.1136 246.176 73.1136 246.176V246.141C78.4269 242.613 91.8838 232.65 97.187 229.007C100.919 226.452 103.966 222.698 105.749 220.208C106.484 222.521 112.477 224.618 114.92 225.893C117.478 227.228 125.727 238.934 125.727 238.934C127.46 247.531 100.506 263.697 97.9424 262.558Z" fill="#FF748E"/>
<path opacity="0.1" d="M36.5355 89.5552C36.747 86.7584 38.2427 84.2941 39.6428 81.835C38.7262 81.4822 37.8096 81.1244 36.9031 80.7515C36.9894 80.1862 37.0332 79.6151 37.034 79.0432C35.6189 81.5629 34.0778 84.0422 33.8612 86.8793C33.6044 90.2455 35.2613 93.4304 36.7319 96.4539C42.3926 108.145 45.8827 121.822 41.6271 134.097C39.7788 139.429 36.5909 144.176 34.2591 149.331C30.1844 158.46 28.9863 168.615 30.8243 178.443C31.9776 184.556 34.3145 190.598 33.7403 196.791C32.7331 207.449 23.552 215.381 14.3457 220.828C10.5837 223.056 6.187 225.097 1.98173 224.95C1.59247 225.577 1.15821 226.175 0.682373 226.739C5.9654 229.073 12.0442 226.447 17.0149 223.504C26.2262 218.062 35.4275 210.15 36.4347 199.472C37.0089 193.279 34.672 187.236 33.5137 181.124C31.6751 171.297 32.8696 161.143 36.9384 152.012C39.255 146.862 42.4782 142.11 44.3064 136.778C48.562 124.503 45.0669 110.826 39.4112 99.1348C37.9456 96.0911 36.2786 92.9214 36.5355 89.5552Z" fill="black"/>
<path d="M39.3558 82.2835C37.3765 73.3186 28.2005 68.4658 28.2005 68.4658C26.8333 70.0107 25.6968 71.7454 24.8262 73.616C28.6084 75.6871 35.5786 82.6312 37.8902 84.9846L39.3558 82.2835Z" fill="#EB5569"/>
</svg>
